<svg width="361" height="442" viewBox="0 0 361 442" fill="none" xmlns="http://www.w3.org/2000/svg">
<rect width="361" height="442" fill="#F5F5F5"/>
<g id="low poly apple">
<g id="2d low poly-apple">
<path id="Vector 68" d="M199 117.5L157.5 120.5L170.5 84L199 117.5Z" fill="#FB4945"/>
<path id="Vector 69" d="M294.5 102.5L238.5 110L244 89L294.5 102.5Z" fill="#591D41"/>
<path id="Vector 70" d="M238.5 110L204.5 132.5L199 117.5L238.5 110Z" fill="#5E0F3C"/>
<path id="Vector 71" d="M204.5 132.5L157.5 120.5L199 117.5L204.5 132.5Z" fill="#681543"/>
<path id="Vector 72" d="M199 117.5L170.5 84L206 88L199 117.5Z" fill="#E53B44"/>
<path id="Vector 61" d="M238.5 110L204.5 132.5L265 186L238.5 110Z" fill="#C41445"/>
<path id="Vector 62" d="M294 311.5L258.5 280.5L288.5 251L294 311.5Z" fill="#9F1749"/>
<path id="Vector 63" d="M360.5 290.5L294 311.5L288.5 251L360.5 290.5Z" fill="#681948"/>
<path id="Vector 64" d="M294.5 102.5L265 186L238.5 110L294.5 102.5Z" fill="#851442"/>
<path id="Vector 65" d="M324.5 368.5L300 363.5L294 311.5L324.5 368.5Z" fill="#6A184B"/>
<path id="Vector 66" d="M360.5 290.5L294 311.5L324.5 368.5L360.5 290.5Z" fill="#45194A"/>
<path id="Vector 55" d="M139.5 97L114 130.5L172 139.5L139.5 97Z" fill="#E7473B"/>
<path id="Vector 52" d="M196 210.5L99 206.5L114 130.5L196 210.5Z" fill="#DC484A"/>
<path id="Vector 53" d="M259 280.5L196 210.5L288.5 251L259 280.5Z" fill="#D61446"/>
<path id="Vector 54" d="M196 210.5L114 130.5L171.5 139L196 210.5Z" fill="#F94240"/>
<path id="Vector 51" d="M294 311.5L167 348L259 280.5L294 311.5Z" fill="#BC1B4D"/>
<path id="Vector 50" d="M300 363.5L167 348L294 311.5L300 363.5Z" fill="#8B1746"/>
<path id="Vector 49" d="M255.5 423L233.5 433.5L249.5 415.5L255.5 423Z" fill="#1C1840"/>
<path id="Vector 48" d="M255.5 423L249 415.5L268 396L280 411.5L255.5 423Z" fill="#241541"/>
<path id="Vector 44" d="M249.5 415.5L211 422L167 348L249.5 415.5Z" fill="#4F1A48"/>
<path id="Vector 45" d="M233.5 433.5L166.5 442L210.5 422L249.5 415.5L233.5 433.5Z" fill="#1C163D"/>
<path id="Vector 46" d="M300 363.5L167 348L249.5 415.5L300 363.5Z" fill="#661745"/>
<path id="Vector 41" d="M159 410L119.5 402.5L167 348L159 410Z" fill="#451A4A"/>
<path id="Vector 42" d="M211 422L167 348L166.5 442L211 422Z" fill="#512153"/>
<path id="Vector 43" d="M159 410L166.5 442L167 348L159 410Z" fill="#552356"/>
<path id="Vector 38" d="M134.5 241L99 206.5L196 210.5L134.5 241Z" fill="#FD3447"/>
<path id="Vector 39" d="M259 280.5L167 348L134.5 241L259 280.5Z" fill="#CA3644"/>
<path id="Vector 40" d="M196 210.5L134.5 241L259 280.5L196 210.5Z" fill="#FE4847"/>
<path id="Vector 35" d="M134.5 241L59.5 260L90 308L134.5 241Z" fill="#DD6065"/>
<path id="Vector 36" d="M99 206.5L59.5 260L134.5 241L99 206.5Z" fill="#FE4644"/>
<path id="Vector 37" d="M167 348L90 308L134.5 241L167 348Z" fill="#FB4746"/>
<path id="Vector 33" d="M90 308L16 313.5L59.5 260L90 308Z" fill="#D71247"/>
<path id="Vector 34" d="M167 348L119.5 402.5L90 308L167 348Z" fill="#891846"/>
<path id="Vector 30" d="M166.5 442L116.5 434L119.5 402.5L159 410L166.5 442Z" fill="#421D3C"/>
<path id="Vector 27" d="M62 391L16 313.5L90 308L62 391Z" fill="#851442"/>
<path id="Vector 28" d="M119.5 402.5L62 391L90 308L119.5 402.5Z" fill="#6A1848"/>
<path id="Vector 29" d="M62 391L116.5 434L119.5 402.5L62 391Z" fill="#4C1A52"/>
<path id="Vector 26" d="M16 313.5L0 212.5L59.5 260L16 313.5Z" fill="#BF1247"/>
<path id="Vector 24" d="M0 212.5L26.1736 145L99 206.5L0 212.5Z" fill="#E5B0A8"/>
<path id="Vector 25" d="M59.5 260L0 212.5L99 206.5L59.5 260Z" fill="#FD7F73"/>
<path id="Vector 23" d="M99 206.5L26 145.5L114 130.5L99 206.5Z" fill="#FB7F73"/>
<path id="Vector 21" d="M26 145.5L74 106.5L114 130.5L26 145.5Z" fill="#D9452C"/>
<path id="Vector 22" d="M114 130.5L74 106.5L139.5 97L114 130.5Z" fill="#C02529"/>
<path id="Vector 32" d="M139.5 97L74 106.5L135 92L139.5 97Z" fill="#C02529"/>
<path id="Vector 47" d="M324.5 368.5L300 363.5L268 396L280 411.5L324.5 368.5Z" fill="#361947"/>
<path id="Vector 56" d="M196 210.5L170.5 138L204.5 132.5L196 210.5Z" fill="#FD3446"/>
<path id="Vector 57" d="M288.5 251L196 210.5L265 186L288.5 251Z" fill="#CB1548"/>
<path id="Vector 58" d="M265 186L204.5 132.5L196 210.5L265 186Z" fill="#D61147"/>
<path id="Vector 59" d="M170.5 138L157 120L204.5 132.5L170.5 138Z" fill="#D30B3C"/>
<path id="Vector 60" d="M170.5 84L157.5 120.5L135 92L170.5 84Z" fill="#FB8174"/>
<path id="Vector 73" d="M238.5 110L206 88L199 117.5L238.5 110Z" fill="#CE124C"/>
<path id="Vector 74" d="M238.5 110L206 88L244 89L238.5 110Z" fill="#411945"/>
</g>
<g id="2d low poly-leaf">
<path id="Vector 1" d="M149 52L145.5 89.5L159.5 76L149 52Z" fill="#B8C63B"/>
<path id="Vector 2" d="M159.5 76L192 50.5L149 52L159.5 76Z" fill="#D4FE5C"/>
<path id="Vector 4" d="M170.5 80L159.5 76L192 50.5L170.5 80Z" fill="#A1D41B"/>
<path id="Vector 5" d="M173.5 24L149 52L192 50.5L173.5 24Z" fill="#507001"/>
<path id="Vector 6" d="M192 50.5L225 30L173.5 24L192 50.5Z" fill="#5C7F07"/>
<path id="Vector 8" d="M201 69.5L170.5 80L192 50.5L201 69.5Z" fill="#94B725"/>
<path id="Vector 9" d="M225 30L201 69.5L192 50.5L225 30Z" fill="#7BA003"/>
<path id="Vector 10" d="M211.5 2L173.5 24L225 30L211.5 2Z" fill="#7C9D1B"/>
<path id="Vector 11" d="M243 56L201 69.5L225 30L243 56Z" fill="#6A8F0B"/>
<path id="Vector 12" d="M247.5 0L211.5 2L225 30L247.5 0Z" fill="#6E8C13"/>
<path id="Vector 13" d="M263 17.5L225 30L243 56L278.5 31L263 17.5Z" fill="#597C04"/>
<path id="Vector 14" d="M292.5 6L278.5 31L263 17.5L292.5 6Z" fill="#6D910D"/>
<path id="Vector 15" d="M247.5 0L225 30L263 17.5L247.5 0Z" fill="#426F1C"/>
<path id="Vector 16" d="M292.5 6L247.5 0L263 17.5L292.5 6Z" fill="#44701B"/>
</g>
<g id="2d low poly-stalk">
<path id="Vector 19" d="M128.5 74.5L112.5 55.5L127 57.5L139.5 77L128.5 74.5Z" fill="#AF5039"/>
<path id="Vector 20" d="M128.5 74.5L157.5 114L139.5 77L128.5 74.5Z" fill="#5A0A11"/>
<path id="Vector 18" d="M127 57.5L112.5 55.5L113.5 38L127 57.5Z" fill="#5B2D20"/>
<path id="Vector 17" d="M112.5 55.5L100 49L113.5 38L112.5 55.5Z" fill="#814B29"/>
</g>
<g id="2d low poly-apple part">
<path id="Vector 77" d="M311.5 211L265 186L312.5 179L311.5 211Z" fill="#FDF5AC"/>
<path id="Vector 78" d="M288.5 251L265 186L311.5 211L288.5 251Z" fill="#FEFD89"/>
<path id="Vector 79" d="M327 236.5L288.5 251L311.5 211L327 236.5Z" fill="#FDFDC6"/>
<path id="Vector 80" d="M360.5 290.5L288.5 251L327 236.5L360.5 290.5Z" fill="#FDFC88"/>
<path id="Vector 76" d="M312.5 179L265 186L309 141L312.5 179Z" fill="#FCFDC4"/>
<path id="Vector 75" d="M309 141L294.5 102.5L265 186L309 141Z" fill="#FFFD85"/>
</g>
</g>
</svg>
