<svg width="361" height="442" viewBox="0 0 361 442" fill="none" xmlns="http://www.w3.org/2000/svg">
    <rect width="361" height="442" fill="#F5F5F5"/>
    <path d="M199 117.5 L157.5 120.5 L170.5 84 L199 117.5 Z" fill="#FB4945"/>
    <path d="M294.5 102.5 L238.5 110 L244 89 L294.5 102.5 Z" fill="#591D41"/>
    <path d="M238.5 110 L204.5 132.5 L199 117.5 L238.5 110 Z" fill="#5E0F3C"/>
    <path d="M204.5 132.5 L157.5 120.5 L199 117.5 L204.5 132.5 Z" fill="#681543"/>
    <path d="M199 117.5 L170.5 84 L206 88 L199 117.5 Z" fill="#E53B44"/>
    <path d="M238.5 110 L204.5 132.5 L265 186 L238.5 110 Z" fill="#C41445"/>
    <path d="M294 311.5 L258.5 280.5 L288.5 251 L294 311.5 Z" fill="#9F1749"/>
    <path d="M360.5 290.5 L294 311.5 L288.5 251 L360.5 290.5 Z" fill="#681948"/>
    <path d="M294.5 102.5 L265 186 L238.5 110 L294.5 102.5 Z" fill="#851442"/>
    <path d="M324.5 368.5 L300 363.5 L294 311.5 L324.5 368.5 Z" fill="#6A184B"/>
    <path d="M360.5 290.5 L294 311.5 L324.5 368.5 L360.5 290.5 Z" fill="#45194A"/>
    <path d="M139.5 97 L114 130.5 L172 139.5 L139.5 97 Z" fill="#E7473B"/>
    <path d="M196 210.5 L99 206.5 L114 130.5 L196 210.5 Z" fill="#DC484A"/>
    <path d="M259 280.5 L196 210.5 L288.5 251 L259 280.5 Z" fill="#D61446"/>
    <path d="M196 210.5 L114 130.5 L171.5 139 L196 210.5 Z" fill="#F94240"/>
    <path d="M294 311.5 L167 348 L259 280.5 L294 311.5 Z" fill="#BC1B4D"/>
    <path d="M300 363.5 L167 348 L294 311.5 L300 363.5 Z" fill="#8B1746"/>
    <path d="M255.5 423 L233.5 433.5 L249.5 415.5 L255.5 423 Z" fill="#1C1840"/>
    <path d="M255.5 423 L249 415.5 L268 396 L280 411.5 L255.5 423 Z" fill="#241541"/>
    <path d="M249.5 415.5 L211 422 L167 348 L249.5 415.5 Z" fill="#4F1A48"/>
    <path d="M233.5 433.5 L166.5 442 L210.5 422 L249.5 415.5 L233.5 433.5 Z" fill="#1C163D"/>
    <path d="M300 363.5 L167 348 L249.5 415.5 L300 363.5 Z" fill="#661745"/>
    <path d="M159 410 L119.5 402.5 L167 348 L159 410 Z" fill="#451A4A"/>
    <path d="M211 422 L167 348 L166.5 442 L211 422 Z" fill="#512153"/>
    <path d="M159 410 L166.5 442 L167 348 L159 410 Z" fill="#552356"/>
    <path d="M134.5 241 L99 206.5 L196 210.5 L134.5 241 Z" fill="#FD3447"/>
    <path d="M259 280.5 L167 348 L134.5 241 L259 280.5 Z" fill="#CA3644"/>
    <path d="M196 210.5 L134.5 241 L259 280.5 L196 210.5 Z" fill="#FE4847"/>
    <path d="M134.5 241 L59.5 260 L90 308 L134.5 241 Z" fill="#DD6065"/>
    <path d="M99 206.5 L59.5 260 L134.5 241 L99 206.5 Z" fill="#FE4644"/>
    <path d="M167 348 L90 308 L134.5 241 L167 348 Z" fill="#FB4746"/>
    <path d="M90 308 L16 313.5 L59.5 260 L90 308 Z" fill="#D71247"/>
    <path d="M167 348 L119.5 402.5 L90 308 L167 348 Z" fill="#891846"/>
    <path d="M166.5 442 L116.5 434 L119.5 402.5 L159 410 L166.5 442 Z" fill="#421D3C"/>
    <path d="M62 391 L16 313.5 L90 308 L62 391 Z" fill="#851442"/>
    <path d="M119.5 402.5 L62 391 L90 308 L119.5 402.5 Z" fill="#6A1848"/>
    <path d="M62 391 L116.5 434 L119.5 402.5 L62 391 Z" fill="#4C1A52"/>
    <path d="M16 313.5 L0 212.5 L59.5 260 L16 313.5 Z" fill="#BF1247"/>
    <path d="M0 212.5 L26.1736 145 L99 206.5 L0 212.5 Z" fill="#E5B0A8"/>
    <path d="M59.5 260 L0 212.5 L99 206.5 L59.5 260 Z" fill="#FD7F73"/>
    <path d="M99 206.5 L26 145.5 L114 130.5 L99 206.5 Z" fill="#FB7F73"/>
    <path d="M26 145.5 L74 106.5 L114 130.5 L26 145.5 Z" fill="#D9452C"/>
    <path d="M114 130.5 L74 106.5 L139.5 97 L114 130.5 Z" fill="#C02529"/>
    <path d="M139.5 97 L74 106.5 L135 92 L139.5 97 Z" fill="#C02529"/>
    <path d="M324.5 368.5 L300 363.5 L268 396 L280 411.5 L324.5 368.5 Z" fill="#361947"/>
    <path d="M196 210.5 L170.5 138 L204.5 132.5 L196 210.5 Z" fill="#FD3446"/>
    <path d="M288.5 251 L196 210.5 L265 186 L288.5 251 Z" fill="#CB1548"/>
    <path d="M265 186 L204.5 132.5 L196 210.5 L265 186 Z" fill="#D61147"/>
    <path d="M170.5 138 L157 120 L204.5 132.5 L170.5 138 Z" fill="#D30B3C"/>
    <path d="M170.5 84 L157.5 120.5 L135 92 L170.5 84 Z" fill="#FB8174"/>
    <path d="M238.5 110 L206 88 L199 117.5 L238.5 110 Z" fill="#CE124C"/>
    <path d="M238.5 110 L206 88 L244 89 L238.5 110 Z" fill="#411945"/>
    <path d="M149 52 L145.5 89.5 L159.5 76 L149 52 Z" fill="#B8C63B"/>
    <path d="M159.5 76 L192 50.5 L149 52 L159.5 76 Z" fill="#D4FE5C"/>
    <path d="M170.5 80 L159.5 76 L192 50.5 L170.5 80 Z" fill="#A1D41B"/>
    <path d="M173.5 24 L149 52 L192 50.5 L173.5 24 Z" fill="#507001"/>
    <path d="M192 50.5 L225 30 L173.5 24 L192 50.5 Z" fill="#5C7F07"/>
    <path d="M201 69.5 L170.5 80 L192 50.5 L201 69.5 Z" fill="#94B725"/>
    <path d="M225 30 L201 69.5 L192 50.5 L225 30 Z" fill="#7BA003"/>
    <path d="M211.5 2 L173.5 24 L225 30 L211.5 2 Z" fill="#7C9D1B"/>
    <path d="M243 56 L201 69.5 L225 30 L243 56 Z" fill="#6A8F0B"/>
    <path d="M247.5 0 L211.5 2 L225 30 L247.5 0 Z" fill="#6E8C13"/>
    <path d="M263 17.5 L225 30 L243 56 L278.5 31 L263 17.5 Z" fill="#597C04"/>
    <path d="M292.5 6 L278.5 31 L263 17.5 L292.5 6 Z" fill="#6D910D"/>
    <path d="M247.5 0 L225 30 L263 17.5 L247.5 0 Z" fill="#426F1C"/>
    <path d="M292.5 6 L247.5 0 L263 17.5 L292.5 6 Z" fill="#44701B"/>
    <path d="M128.5 74.5 L112.5 55.5 L127 57.5 L139.5 77 L128.5 74.5 Z" fill="#AF5039"/>
    <path d="M128.5 74.5 L157.5 114 L139.5 77 L128.5 74.5 Z" fill="#5A0A11"/>
    <path d="M127 57.5 L112.5 55.5 L113.5 38 L127 57.5 Z" fill="#5B2D20"/>
    <path d="M112.5 55.5 L100 49 L113.5 38 L112.5 55.5 Z" fill="#814B29"/>
    <path d="M311.5 211 L265 186 L312.5 179 L311.5 211 Z" fill="#FDF5AC"/>
    <path d="M288.5 251 L265 186 L311.5 211 L288.5 251 Z" fill="#FEFD89"/>
    <path d="M327 236.5 L288.5 251 L311.5 211 L327 236.5 Z" fill="#FDFDC6"/>
    <path d="M360.5 290.5 L288.5 251 L327 236.5 L360.5 290.5 Z" fill="#FDFC88"/>
    <path d="M312.5 179 L265 186 L309 141 L312.5 179 Z" fill="#FCFDC4"/>
    <path d="M309 141 L294.5 102.5 L265 186 L309 141 Z" fill="#FFFD85"/>
</svg>