<svg width="300" height="450" viewBox="0 0 300 450" fill="none" xmlns="http://www.w3.org/2000/svg">
<path d="M21.2662 181.452L32.3577 203.169L79.1864 188.057L123.785 194.379L138.965 177.373L162.929 183.519L181.661 188.451L191.584 203.169L233.794 198.463L241.434 206.914L253.395 203.169V153.866L234.538 121.629L156.49 104.807C156.49 104.807 65.065 121.354 62.835 121.629C60.6029 121.903 21.2662 181.452 21.2662 181.452Z" fill="#E0A72D"/>
<path d="M32.3578 203.166L54.7177 142.606L83.2789 187.158L32.3578 203.166Z" fill="#EBB646"/>
<path d="M138.965 177.374L118.546 129.288L123.785 194.379L138.965 177.374Z" fill="#EBB646"/>
<path d="M181.659 188.451L198.492 139.121L191.582 203.167L181.659 188.451Z" fill="#EBB646"/>
<path d="M233.794 198.463C233.794 198.463 229.879 137.891 229.572 139.121C229.265 140.352 253.395 203.169 253.395 203.169L241.434 206.914L233.794 198.463Z" fill="#EBB646"/>
<path d="M246.317 132.301L225.362 162.03L218.836 175.441L217.126 161.557L236.561 133.684L232.832 132.142L212.282 159.253L203.421 211.979L149.481 206.25L147.274 200.3L141.554 197.015L167.881 175.28L201.599 152.801L191.482 117.958H188.486L191.482 149.054L160.386 168.16L132.605 191.876L109.434 178.57L109.06 156.091L154.766 128.368L151.769 125.746L99.694 152.346L98.1946 179.321L111.541 190.331L85.0817 186.064L82.8338 142.606H78.3381V191.685L121.767 198.769L128.166 204.047L154.766 287.593C154.766 287.593 130.039 392.494 129.665 392.617H157.388L176.119 278.077L152.746 215.06L213.818 219.968L216.068 187.772L252.686 132.375L246.317 132.301Z" fill="#A16400"/>
<path d="M157.389 392.62H141.116L154.767 287.595L157.389 392.62Z" fill="#8C5700"/>
<path d="M176.12 278.079L154.767 287.595L152.748 215.063L176.12 278.079Z" fill="#8C5700"/>
<path d="M82.8327 142.606L85.0805 186.064L111.542 190.331L121.768 198.769L81.5597 188.2L80.9434 142.606H82.8327Z" fill="#8C5700"/>
<path d="M141.553 197.017L132.604 191.878L196.8 149.276L193.967 126.522L201.598 152.804L141.553 197.017Z" fill="#8C5700"/>
<path d="M98.1938 179.321L109.059 156.094L154.767 128.371L151.768 125.746L99.6931 152.346L98.1938 179.321Z" fill="#8C5700"/>
<path d="M152.748 215.063L213.817 219.969L216.069 187.775L252.685 132.376L213.722 184.816L209.877 214.05L152.748 215.063Z" fill="#8C5700"/>
<path d="M218.835 175.441L212.282 159.254L236.56 133.687L217.125 161.56L218.835 175.441Z" fill="#8C5700"/>
<path d="M176.12 278.079L144.334 392.62H157.389L176.12 278.079Z" fill="#784A00"/>
<path d="M149.48 206.253L147.272 200.302L128.167 204.047L149.48 206.253Z" fill="#784A00"/>
<path d="M109.433 178.572H100.177L109.059 156.094L109.433 178.572Z" fill="#784A00"/>
<path d="M132.604 191.878L141.553 197.017L201.598 152.804L132.604 191.878Z" fill="#784A00"/>
<path d="M111.542 190.332L121.768 198.77L81.5598 188.2L85.0807 186.064L111.542 190.332Z" fill="#784A00"/>
<path d="M216.069 187.775L209.877 214.05L213.817 219.969L216.069 187.775Z" fill="#784A00"/>
<path d="M218.835 175.441L217.125 161.56L236.56 133.687L214.184 160.813L218.835 175.441Z" fill="#784A00"/>
<path d="M152.748 215.063L176.12 278.079L161.398 284.639L152.748 215.063Z" fill="#784A00"/>
<path d="M128.167 204.048L152.747 215.063L154.767 287.595L128.167 204.048Z" fill="#C77B00"/>
<path d="M129.664 392.62L154.767 287.595L138.64 392.62H129.664Z" fill="#C77B00"/>
<path d="M78.3371 191.685V142.606H80.3272L81.5598 188.2L78.3371 191.685Z" fill="#C77B00"/>
<path d="M132.604 191.878L160.386 168.164L191.482 149.056L188.483 117.96H191.482L195.567 148.66L132.604 191.878Z" fill="#C77B00"/>
<path d="M212.282 159.254L210.552 215.063L203.42 211.979L212.282 159.254Z" fill="#C77B00"/>
<path d="M12.6692 164.659V149.321L0 95.4751L40.7239 52.4877L51.1318 19.0049L127.149 0L213.575 30.316H258.371L264.706 71.0399L293.212 93.2138L300 123.176L270.587 187.783L253.393 203.167L230.769 150.679L206.333 154.751L189.139 137.559L152.488 151.132L119.908 137.559L76.4702 150.226L42.8037 152.94L21.2663 181.452L12.6692 164.659Z" fill="#E0CB2D"/>
<path d="M51.1318 19.0052L104.805 50.9595L61.7122 59.7291L72.3286 78.4248L109.433 74.0388L66.5576 97.5799L48.5567 62.2683L0 95.4754L40.7239 52.488L51.1318 19.0052Z" fill="#DEBE1D"/>
<path d="M213.575 30.3156L132.604 24.65L165.511 43.3434L135.563 56.2681L190.029 83.962L213.575 37.113L258.371 30.3156H213.575Z" fill="#DEBE1D"/>
<path d="M51.1319 19.0047L104.805 50.959L92.4878 8.66403L51.1319 19.0047Z" fill="#FFEF7A"/>
<path d="M127.149 0L132.604 24.0341L213.574 30.316L127.149 0Z" fill="#FFEF7A"/>
<path d="M40.724 52.4874L48.5568 62.2677L18.9961 75.4233L40.724 52.4874Z" fill="#FFEF7A"/>
<path d="M213.575 37.1136L207.851 96.4255L247.073 78.9132L213.575 37.1136Z" fill="#FFEF7A"/>
<path d="M165.511 43.3435L104.805 50.9589L132.604 24.0338L165.511 43.3435Z" fill="#FFEF7A"/>
<path d="M0 95.475L57.073 78.9734L7.95611 129.287L0 95.475Z" fill="#FFEF7A"/>
<path d="M231.802 101.584L300 123.176L293.212 93.2136L231.802 101.584Z" fill="#FFEF7A"/>
<path d="M258.371 30.3159L247.073 78.9129L264.707 71.0398L258.371 30.3159Z" fill="#FFEF7A"/>
<path d="M135.562 56.2687L190.029 83.9626L213.574 37.1136L135.562 56.2687Z" fill="#DEB521"/>
<path d="M40.7238 52.4873L104.805 50.9589L61.7121 59.7285L72.3284 78.4241L66.5574 97.5792L40.7238 52.4873Z" fill="#DEB521"/>
<path d="M66.5575 97.5793L12.6692 149.321V164.659L21.2662 181.452L66.5575 97.5793Z" fill="#DEB521"/>
<path d="M66.5577 97.5793L76.4703 150.226L119.908 137.559L66.5577 97.5793Z" fill="#FFEF7A"/>
<path d="M109.433 74.0386L119.908 137.559L190.029 83.9625L109.433 74.0386Z" fill="#DEB521"/>
<path d="M109.433 74.0384L135.563 56.2684L190.029 83.9622L109.433 74.0384Z" fill="#FFEF7A"/>
<path d="M152.488 151.132L190.029 83.9626L189.139 137.56L152.488 151.132Z" fill="#FFEF7A"/>
<path d="M206.333 154.751L207.851 96.4251L231.802 101.584L206.333 154.751Z" fill="#DEBE1D"/>
<path d="M230.768 150.679L300 123.175L270.587 187.783L230.768 150.679Z" fill="#DEBE1D"/>
<path d="M132.031 383.245C132.031 383.245 144.061 392.859 158.92 383.245L200.509 387.519L237.019 397.1L241.257 408.509L232.456 431.654L184.536 445.02L126.838 449.583L76.6362 425.459L41.7549 406.878L101.737 379.82L132.031 383.245Z" fill="#C2CC37"/>
<path d="M101.737 379.823L132.161 382.174C132.161 382.174 143.084 391.883 158.92 383.245L200.509 387.519L237.019 397.1L231.477 409.814L200.428 403.458L147.862 415.928L120.968 393.924L68.2968 394.908L101.737 379.823Z" fill="#A2AB2D"/>
</svg>
